<svg
  fill="none"
  height="20"
  viewBox="0 0 81 20"
  width="81"
  xmlns="http://www.w3.org/2000/svg"
>
  <g clip-path="url(#clip0_3115_68740)">
    <path
      clip-rule="evenodd"
      d="M17.5553 9.89028C17.555 10.0484 17.5353 10.2058 17.4967 10.359L18.4613 11.3414C20.3221 13.2557 20.3089 16.3285 18.4318 18.2263C16.5547 20.1241 13.5154 20.1375 11.6221 18.2562L10.6656 17.2891C10.3515 17.3733 10.0211 17.3733 9.70701 17.2891L8.75652 18.2511C6.8679 20.1608 3.80568 20.161 1.9168 18.2516C0.0279287 16.3421 0.027703 13.246 1.9163 11.3363L2.98496 10.2549C2.93715 10.0121 2.93715 9.76228 2.98496 9.51957L1.91731 8.43909C0.695601 7.20371 0.218566 5.40319 0.665899 3.7158C1.11323 2.0284 2.41697 0.710453 4.08601 0.258431C5.75506 -0.193592 7.53581 0.288977 8.75755 1.52436L9.59487 2.37096C9.97958 2.24409 10.3945 2.24659 10.7777 2.3781L11.6231 1.52334C13.5164 -0.357963 16.5557 -0.344641 18.4328 1.55319C20.3099 3.45101 20.3231 6.52385 18.4624 8.43809L17.4947 9.41642C17.5349 9.57109 17.5552 9.73033 17.5553 9.89028ZM12.9299 2.85181L12.0208 3.77092C12.0514 3.90766 12.067 4.04739 12.0673 4.18758C12.0674 4.3874 12.036 4.58597 11.9744 4.7758L15.2046 8.03861C15.3557 7.99914 15.5112 7.97923 15.6672 7.97942C15.8533 7.97919 16.0385 8.00671 16.2167 8.06109L17.149 7.11747C18.2809 5.93399 18.2654 4.05143 17.1139 2.88727C15.9624 1.72311 14.1005 1.70733 12.9299 2.85181ZM12.0069 14.9656L15.1957 11.7406C15.5322 11.8295 15.8866 11.8214 16.2189 11.7171L17.1522 12.6607C18.2841 13.8442 18.2686 15.7268 17.1171 16.8909C15.9656 18.0551 14.1037 18.0709 12.9331 16.9264L11.9917 15.9736C12.0417 15.7997 12.0672 15.6195 12.0674 15.4385C12.0675 15.2789 12.0471 15.1199 12.0069 14.9656ZM10.7248 13.6115L13.856 10.4457L13.857 10.4477C13.7473 10.0843 13.7473 9.69599 13.857 9.33257L10.6096 6.04928C10.332 6.11685 10.0426 6.11861 9.76419 6.05438L6.61581 9.23552C6.768 9.65733 6.768 10.1199 6.61581 10.5417L9.64602 13.6054C9.99854 13.5012 10.3735 13.5033 10.7248 13.6115ZM8.38626 4.79652L8.38475 4.79804C8.27195 4.46109 8.25567 4.09875 8.33779 3.75282L7.44588 2.85107C6.27529 1.70659 4.41331 1.72237 3.26186 2.88653C2.11042 4.05069 2.09481 5.93323 3.22679 7.11676L4.19748 8.09714C4.52035 7.97657 4.86983 7.94828 5.20758 8.01542L8.38475 4.79804L8.38527 4.79957L8.38626 4.79652ZM5.20753 11.7654C4.86998 11.8325 4.52068 11.8049 4.19748 11.6857L3.22679 12.661C2.09481 13.8445 2.11042 15.727 3.26186 16.8912C4.41331 18.0554 6.27529 18.0711 7.44588 16.9267L8.36706 15.9943C8.31322 15.8141 8.28598 15.6269 8.28626 15.4387C8.28612 15.2718 8.30786 15.1056 8.35092 14.9445L5.20753 11.7654Z"
      fill="#2665F1"
      fill-rule="evenodd"
    />
    <path
      clip-rule="evenodd"
      d="M33.979 8.11233V7.15033H35.7376V15.9829H33.976V15.074C33.2588 15.6662 32.3752 16.0146 31.4508 16.0698C31.3609 16.0779 31.2721 16.0779 31.1842 16.0779C29.2323 16.0794 27.5087 14.7909 26.9382 12.9036C26.3677 11.0162 27.0844 8.97366 28.7037 7.87176C30.323 6.7698 32.4644 6.86747 33.979 8.11233ZM29.9493 14.0954C31.0691 14.6619 32.4257 14.3974 33.2567 13.4504C33.7441 12.8978 33.9931 12.1714 33.9486 11.4325C33.8611 9.95676 32.6533 8.80452 31.1911 8.80176H31.0225C29.7725 8.87719 28.7285 9.79209 28.4771 11.0323C28.2257 12.2725 28.8295 13.5289 29.9493 14.0954Z"
      fill="#04263F"
      fill-rule="evenodd"
    />
    <path
      d="M44.3086 5.68876V7.17771H40.3289V5.78067C40.3289 4.56746 41.1097 4.27334 41.7097 4.27334C41.9625 4.2612 42.2153 4.29865 42.4541 4.38363V2.84056C42.3814 2.78541 42.0188 2.65674 41.437 2.65674C39.8562 2.65674 38.5654 3.7229 38.5654 5.68876V7.17771H36.9492V8.73919H38.5654V16.0144H40.3289V8.73814H44.3086V16.0134H46.0712V8.73814H48.1793V7.17771H46.0712V5.78067C46.0712 4.56746 46.852 4.27334 47.452 4.27334C47.7049 4.26148 47.9581 4.29892 48.1976 4.38363V2.84056C48.1247 2.78541 47.7609 2.65674 47.1792 2.65674C45.5985 2.65674 44.3086 3.7229 44.3086 5.68876Z"
      fill="#04263F"
    />
    <path
      d="M51.4013 7.17676H49.7114V16.0135H51.4013V7.17676Z"
      fill="#04263F"
    />
    <path
      d="M50.5474 2.5821C49.8721 2.58662 49.3272 3.14227 49.3286 3.82527C49.33 4.50827 49.8769 5.06178 50.5521 5.06364C51.2279 5.06555 51.778 4.51508 51.7827 3.83209C51.787 3.49958 51.658 3.17955 51.4256 2.94431C51.1931 2.70908 50.8764 2.57851 50.5474 2.5821Z"
      fill="#04263F"
    />
    <path
      d="M62.9337 2.58212C62.2584 2.58719 61.7139 3.14308 61.7158 3.82595C61.7172 4.50882 62.2645 5.06197 62.9398 5.06364C63.6156 5.06535 64.1652 4.51495 64.1704 3.8321C64.1742 3.49941 64.0452 3.17922 63.8123 2.94395C63.5798 2.70869 63.2631 2.57824 62.9337 2.58212Z"
      fill="#04263F"
    />
    <path
      d="M57.4591 6.91943C56.4407 6.91943 55.4054 7.34224 54.7692 8.44415V7.17781H53.0977V16.0145H54.8026V10.9083C54.8026 9.56748 55.4934 8.48296 56.8379 8.48296C58.365 8.48296 58.8732 9.47558 58.8732 10.7061V16.0165H60.581V10.41C60.5842 8.44415 59.5499 6.91943 57.4591 6.91943Z"
      fill="#04263F"
    />
    <path
      d="M78.6648 7.17676L76.0488 13.2766L73.3227 7.17676H71.3599L75.1213 15.0402L72.9406 19.7072H74.8135L80.5001 7.17676H78.6648Z"
      fill="#04263F"
    />
    <path
      d="M68.6827 4.38379H67.125V5.81352C67.125 6.58452 66.7212 7.17276 65.781 7.17276H65.3071V8.73423H66.9787V13.585C66.9787 15.1833 67.9241 16.1014 69.414 16.1014C69.8083 16.1091 70.2008 16.0532 70.5777 15.9359V14.4705C70.3561 14.5171 70.1311 14.5418 69.9048 14.544C69.014 14.544 68.6869 14.1355 68.6869 13.3318V8.73628H70.5777V7.17785H68.6827V4.38379Z"
      fill="#04263F"
    />
    <path
      d="M63.7885 7.17676H62.0986V16.0135H63.7885V7.17676Z"
      fill="#04263F"
    />
  </g>
  <defs>
    <clipPath id="clip0_3115_68740">
      <rect
        fill="white"
        height="20"
        transform="translate(0.5)"
        width="80"
      />
    </clipPath>
  </defs>
</svg>
