<svg width="18" height="20" viewBox="0 0 18 20" fill="none" xmlns="http://www.w3.org/2000/svg">
<g clip-path="url(#clip0_7714_205446)">
<path d="M0 2.5C0 1.80859 0.558594 1.25 1.25 1.25C10.2266 1.25 17.5 8.52344 17.5 17.5C17.5 18.1914 16.9414 18.75 16.25 18.75C15.5586 18.75 15 18.1914 15 17.5C15 9.90625 8.84375 3.75 1.25 3.75C0.558594 3.75 0 3.19141 0 2.5ZM0 16.25C0 15.587 0.263392 14.9511 0.732233 14.4822C1.20107 14.0134 1.83696 13.75 2.5 13.75C3.16304 13.75 3.79893 14.0134 4.26777 14.4822C4.73661 14.9511 5 15.587 5 16.25C5 16.913 4.73661 17.5489 4.26777 18.0178C3.79893 18.4866 3.16304 18.75 2.5 18.75C1.83696 18.75 1.20107 18.4866 0.732233 18.0178C0.263392 17.5489 0 16.913 0 16.25ZM1.25 6.25C7.46484 6.25 12.5 11.2852 12.5 17.5C12.5 18.1914 11.9414 18.75 11.25 18.75C10.5586 18.75 10 18.1914 10 17.5C10 12.668 6.08203 8.75 1.25 8.75C0.558594 8.75 0 8.19141 0 7.5C0 6.80859 0.558594 6.25 1.25 6.25Z" fill="#D84661"/>
</g>
<defs>
<clipPath id="clip0_7714_205446">
<rect width="17.5" height="20" fill="white"/>
</clipPath>
</defs>
</svg>
