<?xml version="1.0" encoding="UTF-8"?>
<!DOCTYPE svg PUBLIC "-//W3C//DTD SVG 1.1//EN" "http://www.w3.org/Graphics/SVG/1.1/DTD/svg11.dtd">
<svg xmlns="http://www.w3.org/2000/svg" version="1.1" width="128px" height="128px" style="shape-rendering:geometricPrecision; text-rendering:geometricPrecision; image-rendering:optimizeQuality; fill-rule:evenodd; clip-rule:evenodd" xmlns:xlink="http://www.w3.org/1999/xlink">
<g><path style="opacity:1" fill="#fefefe" d="M -0.5,-0.5 C 42.1667,-0.5 84.8333,-0.5 127.5,-0.5C 127.5,42.1667 127.5,84.8333 127.5,127.5C 84.8333,127.5 42.1667,127.5 -0.5,127.5C -0.5,84.8333 -0.5,42.1667 -0.5,-0.5 Z"/></g>
<g><path style="opacity:1" fill="#e9a778" d="M 25.5,19.5 C 26.5,19.5 27.5,19.5 28.5,19.5C 31.2869,20.4767 34.2869,20.81 37.5,20.5C 37.0042,24.6516 36.0042,28.6516 34.5,32.5C 31.1173,28.4474 28.1173,24.1141 25.5,19.5 Z"/></g>
<g><path style="opacity:1" fill="#e07b6d" d="M 28.5,19.5 C 37.1667,19.5 45.8333,19.5 54.5,19.5C 56.449,21.563 58.7823,22.8964 61.5,23.5C 60.6236,23.3691 59.9569,23.7025 59.5,24.5C 58.7865,26.8111 57.7865,28.9777 56.5,31C 59.146,31.4974 61.8127,31.6641 64.5,31.5C 64.5,31.8333 64.5,32.1667 64.5,32.5C 59.8333,32.5 55.1667,32.5 50.5,32.5C 49.5,32.5 48.5,32.5 47.5,32.5C 49.997,29.3498 51.3304,25.6832 51.5,21.5C 46.7971,21.5628 42.1304,21.2295 37.5,20.5C 34.2869,20.81 31.2869,20.4767 28.5,19.5 Z"/></g>
<g><path style="opacity:1" fill="#e89e72" d="M 54.5,19.5 C 62.5,19.5 70.5,19.5 78.5,19.5C 80.3068,23.1136 82.1401,26.7802 84,30.5C 86.255,32.0549 88.755,33.0549 91.5,33.5C 89.9379,37.3918 87.6046,40.7251 84.5,43.5C 80.2664,38.4014 75.9331,38.4014 71.5,43.5C 70.8333,43.8333 70.1667,44.1667 69.5,44.5C 69.5569,43.391 69.8902,42.391 70.5,41.5C 73.2411,39.0246 75.2411,36.0246 76.5,32.5C 77.0462,28.621 75.0462,26.2877 70.5,25.5C 67.7814,24.087 64.7814,23.4203 61.5,23.5C 58.7823,22.8964 56.449,21.563 54.5,19.5 Z"/></g>
<g><path style="opacity:1" fill="#faefab" d="M 92.5,19.5 C 95.5719,19.1826 98.5719,19.5159 101.5,20.5C 100.388,22.4192 99.0542,24.0858 97.5,25.5C 93.9909,25.1921 92.3243,23.1921 92.5,19.5 Z"/></g>
<g><path style="opacity:1" fill="#e58e69" d="M 37.5,20.5 C 42.1304,21.2295 46.7971,21.5628 51.5,21.5C 51.3304,25.6832 49.997,29.3498 47.5,32.5C 44.8283,34.3914 43.8283,37.0581 44.5,40.5C 44.5,41.1667 44.5,41.8333 44.5,42.5C 44.5,43.8333 44.5,45.1667 44.5,46.5C 44.1667,46.5 43.8333,46.5 43.5,46.5C 40.4737,41.8157 37.4737,37.1491 34.5,32.5C 36.0042,28.6516 37.0042,24.6516 37.5,20.5 Z"/></g>
<g><path style="opacity:1" fill="#da626d" d="M 61.5,23.5 C 64.7814,23.4203 67.7814,24.087 70.5,25.5C 68.3862,26.3602 67.2195,28.0268 67,30.5C 66.3292,31.2524 65.4959,31.5858 64.5,31.5C 61.8127,31.6641 59.146,31.4974 56.5,31C 57.7865,28.9777 58.7865,26.8111 59.5,24.5C 59.9569,23.7025 60.6236,23.3691 61.5,23.5 Z"/></g>
<g><path style="opacity:1" fill="#d65476" d="M 70.5,25.5 C 75.0462,26.2877 77.0462,28.621 76.5,32.5C 72.5,32.5 68.5,32.5 64.5,32.5C 64.5,32.1667 64.5,31.8333 64.5,31.5C 65.4959,31.5858 66.3292,31.2524 67,30.5C 67.2195,28.0268 68.3862,26.3602 70.5,25.5 Z"/></g>
<g><path style="opacity:1" fill="#edb782" d="M 78.5,19.5 C 79.8333,19.5 81.1667,19.5 82.5,19.5C 85.3891,22.2558 87.5558,25.5891 89,29.5C 89.85,30.4239 90.85,30.4239 92,29.5C 93.0299,29.8361 93.5299,30.5028 93.5,31.5C 93.1667,32.5 92.5,33.1667 91.5,33.5C 88.755,33.0549 86.255,32.0549 84,30.5C 82.1401,26.7802 80.3068,23.1136 78.5,19.5 Z"/></g>
<g><path style="opacity:1" fill="#f1cc91" d="M 82.5,19.5 C 85.8333,19.5 89.1667,19.5 92.5,19.5C 92.3243,23.1921 93.9909,25.1921 97.5,25.5C 96.5254,27.7952 95.1921,29.7952 93.5,31.5C 93.5299,30.5028 93.0299,29.8361 92,29.5C 90.85,30.4239 89.85,30.4239 89,29.5C 87.5558,25.5891 85.3891,22.2558 82.5,19.5 Z"/></g>
<g><path style="opacity:1" fill="#efeaf5" d="M 50.5,32.5 C 55.1667,32.5 59.8333,32.5 64.5,32.5C 68.5,32.5 72.5,32.5 76.5,32.5C 75.2411,36.0246 73.2411,39.0246 70.5,41.5C 71.1383,39.54 71.1383,37.7067 70.5,36C 67.6667,35.8333 64.8333,35.6667 62,35.5C 58.7485,35.5191 55.9151,36.1858 53.5,37.5C 52.1103,36.1007 51.1103,34.4341 50.5,32.5 Z"/></g>
<g><path style="opacity:1" fill="#de746c" d="M 84.5,43.5 C 83.8897,45.4341 82.8897,47.1007 81.5,48.5C 81.3718,46.9102 80.7051,45.5769 79.5,44.5C 76.9159,43.6072 74.2492,43.2739 71.5,43.5C 75.9331,38.4014 80.2664,38.4014 84.5,43.5 Z"/></g>
<g><path style="opacity:1" fill="#da626d" d="M 53.5,44.5 C 51.4496,44.9612 49.4496,45.6279 47.5,46.5C 46.1408,45.3757 45.1408,44.0423 44.5,42.5C 44.5,41.8333 44.5,41.1667 44.5,40.5C 45.1174,40.6107 45.6174,40.944 46,41.5C 47.897,39.9837 50.0637,39.317 52.5,39.5C 52.6287,41.2161 52.962,42.8828 53.5,44.5 Z"/></g>
<g><path style="opacity:1" fill="#d54c75" d="M 47.5,32.5 C 48.5,32.5 49.5,32.5 50.5,32.5C 51.1103,34.4341 52.1103,36.1007 53.5,37.5C 56.4285,41.694 59.0952,46.0274 61.5,50.5C 60.2015,52.0986 58.5348,52.5986 56.5,52C 55.0087,49.6922 54.0087,47.1922 53.5,44.5C 52.962,42.8828 52.6287,41.2161 52.5,39.5C 50.0637,39.317 47.897,39.9837 46,41.5C 45.6174,40.944 45.1174,40.6107 44.5,40.5C 43.8283,37.0581 44.8283,34.3914 47.5,32.5 Z"/></g>
<g><path style="opacity:1" fill="#df796c" d="M 44.5,42.5 C 45.1408,44.0423 46.1408,45.3757 47.5,46.5C 49.4496,45.6279 51.4496,44.9612 53.5,44.5C 54.0087,47.1922 55.0087,49.6922 56.5,52C 58.5348,52.5986 60.2015,52.0986 61.5,50.5C 63.8532,52.8599 65.8532,55.5265 67.5,58.5C 67.5858,59.4959 67.2524,60.3292 66.5,61C 64.26,61.977 61.9267,62.477 59.5,62.5C 58.9292,59.5231 57.9292,56.6897 56.5,54C 54.332,53.7506 52.6653,54.5839 51.5,56.5C 48.3954,53.7251 46.0621,50.3918 44.5,46.5C 44.5,45.1667 44.5,43.8333 44.5,42.5 Z"/></g>
<g><path style="opacity:1" fill="#d54e74" d="M 71.5,43.5 C 74.2492,43.2739 76.9159,43.6072 79.5,44.5C 80.7051,45.5769 81.3718,46.9102 81.5,48.5C 80.2464,51.0934 78.5798,53.4268 76.5,55.5C 73.7189,52.0657 71.3856,48.3991 69.5,44.5C 70.1667,44.1667 70.8333,43.8333 71.5,43.5 Z"/></g>
<g><path style="opacity:1" fill="#e7986f" d="M 67.5,58.5 C 69.2181,60.2228 70.5514,62.2228 71.5,64.5C 72.7866,67.4061 73.7866,70.4061 74.5,73.5C 71.9333,73.8545 69.4333,74.5212 67,75.5C 65.3514,74.2139 64.1847,72.5473 63.5,70.5C 62.675,69.6143 61.675,69.281 60.5,69.5C 57.1173,65.4474 54.1173,61.1141 51.5,56.5C 52.6653,54.5839 54.332,53.7506 56.5,54C 57.9292,56.6897 58.9292,59.5231 59.5,62.5C 61.9267,62.477 64.26,61.977 66.5,61C 67.2524,60.3292 67.5858,59.4959 67.5,58.5 Z"/></g>
<g><path style="opacity:1" fill="#e4dbee" d="M 43.5,46.5 C 43.8333,46.5 44.1667,46.5 44.5,46.5C 46.0621,50.3918 48.3954,53.7251 51.5,56.5C 54.1173,61.1141 57.1173,65.4474 60.5,69.5C 63.1173,74.1141 66.1173,78.4474 69.5,82.5C 71.8609,86.5172 74.1942,90.5172 76.5,94.5C 75.5,94.5 74.5,94.5 73.5,94.5C 72.5596,91.2857 71.0596,88.2857 69,85.5C 62.4626,75.7299 55.4626,66.3965 48,57.5C 46.4805,53.8007 44.9805,50.1341 43.5,46.5 Z"/></g>
<g><path style="opacity:1" fill="#efc08a" d="M 53.5,88.5 C 52.8078,84.1089 51.8078,79.7755 50.5,75.5C 49.5,75.5 48.5,75.5 47.5,75.5C 48.016,73.8002 49.016,72.4669 50.5,71.5C 52.6667,74.5 54.8333,77.5 57,80.5C 57.2035,83.7602 56.0368,86.4269 53.5,88.5 Z"/></g>
<g><path style="opacity:1" fill="#ecb884" d="M 60.5,69.5 C 61.675,69.281 62.675,69.6143 63.5,70.5C 64.1847,72.5473 65.3514,74.2139 67,75.5C 69.4333,74.5212 71.9333,73.8545 74.5,73.5C 75.2852,75.3736 75.9518,77.3736 76.5,79.5C 76.5,79.8333 76.5,80.1667 76.5,80.5C 75.8826,80.3893 75.3826,80.056 75,79.5C 73.1239,80.6087 71.2905,81.6087 69.5,82.5C 66.1173,78.4474 63.1173,74.1141 60.5,69.5 Z"/></g>
<g><path style="opacity:1" fill="#d85a75" d="M 71.5,64.5 C 75.1892,68.8648 78.5225,73.5315 81.5,78.5C 81.6309,79.3764 81.2975,80.0431 80.5,80.5C 79.2638,79.7542 77.9305,79.4208 76.5,79.5C 75.9518,77.3736 75.2852,75.3736 74.5,73.5C 73.7866,70.4061 72.7866,67.4061 71.5,64.5 Z"/></g>
<g><path style="opacity:1" fill="#f2eff9" d="M 25.5,19.5 C 28.1173,24.1141 31.1173,28.4474 34.5,32.5C 37.4737,37.1491 40.4737,41.8157 43.5,46.5C 44.9805,50.1341 46.4805,53.8007 48,57.5C 55.4626,66.3965 62.4626,75.7299 69,85.5C 71.0596,88.2857 72.5596,91.2857 73.5,94.5C 69.1667,94.5 64.8333,94.5 60.5,94.5C 57.1667,94.5 53.8333,94.5 50.5,94.5C 50.3284,93.5084 50.6618,92.8417 51.5,92.5C 57.987,93.654 64.6536,93.8206 71.5,93C 54.9148,70.2463 38.9148,47.0796 23.5,23.5C 23.9943,21.9745 24.661,20.6412 25.5,19.5 Z"/></g>
<g><path style="opacity:1" fill="#e89e72" d="M 47.5,75.5 C 48.5,75.5 49.5,75.5 50.5,75.5C 51.8078,79.7755 52.8078,84.1089 53.5,88.5C 52.8333,89.8333 52.1667,91.1667 51.5,92.5C 50.6618,92.8417 50.3284,93.5084 50.5,94.5C 50.1667,94.5 49.8333,94.5 49.5,94.5C 49.5,92.5 49.5,90.5 49.5,88.5C 48.5,88.5 47.5,88.5 46.5,88.5C 46.8893,85.4467 46.2227,82.78 44.5,80.5C 45.1103,78.5659 46.1103,76.8993 47.5,75.5 Z"/></g>
<g><path style="opacity:1" fill="#de7370" d="M 81.5,78.5 C 83.2181,80.2228 84.5514,82.2228 85.5,84.5C 82.8333,84.1667 80.1667,83.8333 77.5,83.5C 76.8902,82.609 76.5569,81.609 76.5,80.5C 76.5,80.1667 76.5,79.8333 76.5,79.5C 77.9305,79.4208 79.2638,79.7542 80.5,80.5C 81.2975,80.0431 81.6309,79.3764 81.5,78.5 Z"/></g>
<g><path style="opacity:1" fill="#f1ca91" d="M 76.5,80.5 C 76.5569,81.609 76.8902,82.609 77.5,83.5C 77.5,87.1667 77.5,90.8333 77.5,94.5C 77.1667,94.5 76.8333,94.5 76.5,94.5C 74.1942,90.5172 71.8609,86.5172 69.5,82.5C 71.2905,81.6087 73.1239,80.6087 75,79.5C 75.3826,80.056 75.8826,80.3893 76.5,80.5 Z"/></g>
<g><path style="opacity:1" fill="#df766c" d="M 44.5,80.5 C 46.2227,82.78 46.8893,85.4467 46.5,88.5C 47.5,88.5 48.5,88.5 49.5,88.5C 49.5,90.5 49.5,92.5 49.5,94.5C 48.8902,95.391 48.5569,96.391 48.5,97.5C 47.5,97.5 46.5,97.5 45.5,97.5C 44.6226,93.65 43.2892,89.9833 41.5,86.5C 40.1936,87.9122 39.3603,89.5789 39,91.5C 37.9887,92.3366 36.8221,92.67 35.5,92.5C 38.0251,88.1038 41.0251,84.1038 44.5,80.5 Z"/></g>
<g><path style="opacity:1" fill="#d65271" d="M 48.5,97.5 C 46.8736,100.246 46.2069,103.246 46.5,106.5C 45.5,106.5 44.5,106.5 43.5,106.5C 42.8333,103.5 42.1667,100.5 41.5,97.5C 40.1667,97.5 38.8333,97.5 37.5,97.5C 37.7852,99.288 37.4519,100.955 36.5,102.5C 34.2706,101.423 31.9372,100.756 29.5,100.5C 31.5116,97.795 33.5116,95.1283 35.5,92.5C 36.8221,92.67 37.9887,92.3366 39,91.5C 39.3603,89.5789 40.1936,87.9122 41.5,86.5C 43.2892,89.9833 44.6226,93.65 45.5,97.5C 46.5,97.5 47.5,97.5 48.5,97.5 Z"/></g>
<g><path style="opacity:1" fill="#d23d75" d="M 49.5,94.5 C 49.8333,94.5 50.1667,94.5 50.5,94.5C 53.8333,94.5 57.1667,94.5 60.5,94.5C 63.977,95.3227 67.6437,95.8227 71.5,96C 69.4062,97.3515 67.0728,97.8515 64.5,97.5C 64.5,98.8333 64.5,100.167 64.5,101.5C 61.0272,101.424 57.6939,100.758 54.5,99.5C 54.8685,102.533 54.2018,105.2 52.5,107.5C 43.3178,107.827 34.3178,107.493 25.5,106.5C 26.8333,104.5 28.1667,102.5 29.5,100.5C 31.9372,100.756 34.2706,101.423 36.5,102.5C 37.4519,100.955 37.7852,99.288 37.5,97.5C 38.8333,97.5 40.1667,97.5 41.5,97.5C 42.1667,100.5 42.8333,103.5 43.5,106.5C 44.5,106.5 45.5,106.5 46.5,106.5C 46.2069,103.246 46.8736,100.246 48.5,97.5C 48.5569,96.391 48.8902,95.391 49.5,94.5 Z"/></g>
<g><path style="opacity:1" fill="#ecb380" d="M 94.5,97.5 C 97.1606,100.171 99.4939,103.171 101.5,106.5C 99.604,107.466 97.604,107.799 95.5,107.5C 92.8333,107.5 90.1667,107.5 87.5,107.5C 88.5062,104.824 89.5062,102.157 90.5,99.5C 88.5165,99.6168 86.8498,98.9501 85.5,97.5C 86,97.1667 86.5,96.8333 87,96.5C 88.7842,97.3091 90.6175,97.9757 92.5,98.5C 93.4164,98.4573 94.0831,98.1239 94.5,97.5 Z"/></g>
<g><path style="opacity:1" fill="#dd6f6b" d="M 78.5,95.5 C 80.9363,95.7489 82.9363,96.7489 84.5,98.5C 83.6798,100.111 82.3464,100.778 80.5,100.5C 80.5,102.167 80.5,103.833 80.5,105.5C 77.1501,105.665 73.8168,105.498 70.5,105C 69.2625,104.768 68.2625,104.268 67.5,103.5C 68.5,103.5 69.5,103.5 70.5,103.5C 70.5,101.833 70.5,100.167 70.5,98.5C 73.9476,99.0994 76.6143,98.0994 78.5,95.5 Z"/></g>
<g><path style="opacity:1" fill="#d95e72" d="M 60.5,94.5 C 64.8333,94.5 69.1667,94.5 73.5,94.5C 74.5,94.5 75.5,94.5 76.5,94.5C 76.8333,94.5 77.1667,94.5 77.5,94.5C 77.5,95.1667 77.8333,95.5 78.5,95.5C 76.6143,98.0994 73.9476,99.0994 70.5,98.5C 70.5,100.167 70.5,101.833 70.5,103.5C 69.5,103.5 68.5,103.5 67.5,103.5C 66.1667,103.5 64.8333,103.5 63.5,103.5C 63.4729,105.199 62.8062,106.533 61.5,107.5C 58.5,107.5 55.5,107.5 52.5,107.5C 54.2018,105.2 54.8685,102.533 54.5,99.5C 57.6939,100.758 61.0272,101.424 64.5,101.5C 64.5,100.167 64.5,98.8333 64.5,97.5C 67.0728,97.8515 69.4062,97.3515 71.5,96C 67.6437,95.8227 63.977,95.3227 60.5,94.5 Z"/></g>
<g><path style="opacity:1" fill="#e5906c" d="M 77.5,83.5 C 80.1667,83.8333 82.8333,84.1667 85.5,84.5C 88.8827,88.5526 91.8827,92.8859 94.5,97.5C 94.0831,98.1239 93.4164,98.4573 92.5,98.5C 90.6175,97.9757 88.7842,97.3091 87,96.5C 86.5,96.8333 86,97.1667 85.5,97.5C 86.8498,98.9501 88.5165,99.6168 90.5,99.5C 89.5062,102.157 88.5062,104.824 87.5,107.5C 78.8333,107.5 70.1667,107.5 61.5,107.5C 62.8062,106.533 63.4729,105.199 63.5,103.5C 64.8333,103.5 66.1667,103.5 67.5,103.5C 68.2625,104.268 69.2625,104.768 70.5,105C 73.8168,105.498 77.1501,105.665 80.5,105.5C 80.5,103.833 80.5,102.167 80.5,100.5C 82.3464,100.778 83.6798,100.111 84.5,98.5C 82.9363,96.7489 80.9363,95.7489 78.5,95.5C 77.8333,95.5 77.5,95.1667 77.5,94.5C 77.5,90.8333 77.5,87.1667 77.5,83.5 Z"/></g>
<g><path style="opacity:1" fill="#ede8f5" d="M 25.5,106.5 C 34.3178,107.493 43.3178,107.827 52.5,107.5C 55.5,107.5 58.5,107.5 61.5,107.5C 70.1667,107.5 78.8333,107.5 87.5,107.5C 90.1667,107.5 92.8333,107.5 95.5,107.5C 96.2625,108.268 97.2625,108.768 98.5,109C 98.1667,109.333 97.8333,109.667 97.5,110C 73.5,110.667 49.5,110.667 25.5,110C 24.2089,108.708 24.2089,107.542 25.5,106.5 Z"/></g>
</svg>
